<svg version="1.1" xmlns="http://www.w3.org/2000/svg" xmlns:xlink="http://www.w3.org/1999/xlink" viewBox="0 0 224 224" width="50" height="50" style="fill: rgb(0, 0, 0);"><g fill="none" fill-rule="nonzero" stroke="none" stroke-width="1" stroke-linecap="butt" stroke-linejoin="miter" stroke-miterlimit="10" stroke-dasharray="" stroke-dashoffset="0" font-family="none" font-weight="none" font-size="none" text-anchor="none" style="mix-blend-mode: normal"><path d="M0,224v-224h224v224z" fill="none"/><g fill="#666666"><path d="M135.03,8.96c-14.65072,0 -27.30661,4.46629 -36.19,13.29125c-8.88339,8.82496 -13.72,21.75949 -13.72,37.63375v20.755h-26.88c-2.47413,0.00025 -4.47975,2.00587 -4.48,4.48v35.84c0.00025,2.47413 2.00587,4.47975 4.48,4.48h26.88v85.12c0.00025,2.47413 2.00587,4.47975 4.48,4.48h35.84c2.47413,-0.00025 4.47975,-2.00587 4.48,-4.48v-85.12h31.36c2.25769,-0.00013 4.16259,-1.68005 4.445,-3.92l4.48,-35.84c0.16057,-1.27567 -0.23463,-2.55885 -1.08508,-3.52314c-0.85045,-0.96429 -2.07418,-1.51675 -3.35992,-1.51686h-35.84v-17.92c0,-5.00266 3.95734,-8.96 8.96,-8.96h26.88c2.47413,-0.00025 4.47975,-2.00587 4.48,-4.48v-34.29125c-0.00282,-2.24557 -1.66752,-4.1422 -3.89375,-4.43625c-3.95886,-0.52527 -18.25011,-1.5925 -31.31625,-1.5925zM135.03,17.92c10.92158,0 21.47927,0.87381 26.25,1.32125v25.55875h-22.4c-9.84406,0 -17.92,8.07594 -17.92,17.92v22.4c0.00025,2.47413 2.00587,4.47975 4.48,4.48h35.245l-3.36,26.88h-31.885c-2.47413,0.00025 -4.47975,2.00587 -4.48,4.48v85.12h-26.88v-85.12c-0.00025,-2.47413 -2.00587,-4.47975 -4.48,-4.48h-26.88v-26.88h26.88c2.47413,-0.00025 4.47975,-2.00587 4.48,-4.48v-25.235c0,-14.08798 4.12297,-24.37246 11.0775,-31.28125c6.95453,-6.9088 17.01154,-10.68375 29.8725,-10.68375z"/></g></g></svg>